<svg xmlns="http://www.w3.org/2000/svg" xmlns:xlink="http://www.w3.org/1999/xlink" width="24" height="22" viewBox="0 0 24 22">
  <defs>
    <clipPath id="clip-path">
      <rect id="Rectangle_10" data-name="Rectangle 10" width="24" height="22" transform="translate(431 358)" fill="#fff"/>
    </clipPath>
  </defs>
  <g id="Mask_Group_4" data-name="Mask Group 4" transform="translate(-431 -358)" clip-path="url(#clip-path)">
    <g id="boss" transform="translate(431.605 358)">
      <g id="Group_26" data-name="Group 26">
        <path id="Path_31" data-name="Path 31" d="M48.99,15.949a11.375,11.375,0,0,1-1.82-1.165V13.768A5.774,5.774,0,0,0,49.851,9.8a1.972,1.972,0,0,0,1.532-1.838c0-.729-.538-1.238-1.4-1.37V5.86a6.418,6.418,0,0,0-1.553-4.322A5.383,5.383,0,0,0,44.362,0a5.387,5.387,0,0,0-4.071,1.541A6.4,6.4,0,0,0,38.745,5.86v.727c-.867.132-1.4.64-1.4,1.37A1.972,1.972,0,0,0,38.872,9.8a5.774,5.774,0,0,0,2.681,3.973v1.017a11.381,11.381,0,0,1-1.821,1.165C35.1,17.457,35,20.236,35,20.354c0,0,0,.005,0,.008v1.17a.468.468,0,0,0,.468.468H53.255a.468.468,0,0,0,.468-.468V20.359C53.723,20.24,53.654,17.443,48.99,15.949Zm.989-8.411c.239.056.468.173.468.419a1.038,1.038,0,0,1-.476.787C49.975,8.636,49.979,7.539,49.979,7.539Zm-11.7.419c0-.246.229-.363.468-.419,0,0,0,1.1.008,1.206A1.038,1.038,0,0,1,38.277,7.957Zm9.588,8.435-1.546.9-.262-1.178a4.408,4.408,0,0,0,.662-.49A10.352,10.352,0,0,0,47.864,16.392Zm-2.553-.937a2.117,2.117,0,0,1-1.9,0,3.368,3.368,0,0,1-.92-.659V14.2a5.823,5.823,0,0,0,3.745,0V14.8A3.378,3.378,0,0,1,45.311,15.455ZM40.972,2.183A4.5,4.5,0,0,1,44.362.936a4.491,4.491,0,0,1,3.383,1.245,5.278,5.278,0,0,1,1.283,3.188A9.92,9.92,0,0,1,44.4,3.831a.468.468,0,0,0-.739.382c0,.086-.131.249-.5.425a6.723,6.723,0,0,1-1.57.46,18.955,18.955,0,0,1-1.894.251A5.254,5.254,0,0,1,40.972,2.183ZM39.681,6.289a19.97,19.97,0,0,0,2.077-.271A4.4,4.4,0,0,0,44.349,4.9a10.783,10.783,0,0,0,4.693,1.405V7.723h-.234V7.255a.468.468,0,0,0-.468-.468H45.064a.468.468,0,0,0-.468.468v.468h-.468V7.255a.468.468,0,0,0-.468-.468H40.383a.468.468,0,0,0-.468.468v.468h-.234Zm8.191,1.435V8.66h-2.34V7.723Zm-4.681,0V8.66h-2.34V7.723ZM39.738,9.292c-.027-.218-.044-.429-.052-.632h.229a.937.937,0,0,0,.936.936h2.34a.937.937,0,0,0,.936-.936H44.6a.937.937,0,0,0,.936.936h2.34a.937.937,0,0,0,.936-.936h.229c-.008.2-.025.414-.052.632a4.873,4.873,0,0,1-2.528,3.8,4.789,4.789,0,0,1-4.192,0A4.873,4.873,0,0,1,39.738,9.292Zm2.267,6.335a4.393,4.393,0,0,0,.662.49l-.262,1.178-1.546-.9A10.348,10.348,0,0,0,42.005,15.626Zm-6.069,5.438v-.692a2.647,2.647,0,0,1,.532-1.263,6.948,6.948,0,0,1,3.394-2.215l2.444,1.426.549,2.744Zm8.978,0h-1.1L43.2,18.026l.339-1.525a2.966,2.966,0,0,0,1.642,0l.339,1.525Zm7.873,0H45.869l.549-2.744,2.445-1.426a6.528,6.528,0,0,1,3.4,2.209,2.6,2.6,0,0,1,.522,1.266Z" transform="translate(-35 0)"/>
      </g>
    </g>
  </g>
</svg>
