<svg xmlns="http://www.w3.org/2000/svg" xmlns:xlink="http://www.w3.org/1999/xlink" width="24" height="22" viewBox="0 0 24 22">
  <defs>
    <clipPath id="clip-path">
      <rect id="Rectangle_11" data-name="Rectangle 11" width="24" height="22" transform="translate(432 354)" fill="#fff"/>
    </clipPath>
  </defs>
  <g id="Mask_Group_5" data-name="Mask Group 5" transform="translate(-432 -354)" clip-path="url(#clip-path)">
    <g id="explore" transform="translate(430.816 354)">
      <g id="Group_28" data-name="Group 28" transform="translate(1.153)">
        <g id="Group_27" data-name="Group 27">
          <path id="Path_32" data-name="Path 32" d="M15.958,0a7.091,7.091,0,0,0-5.286,11.823L9.264,13.231l-.647-.647a.438.438,0,0,0-.62,0L1.685,18.9a1.819,1.819,0,0,0,2.572,2.572l6.312-6.312a.438.438,0,0,0,0-.62l-.685-.685L11.3,12.439A7.094,7.094,0,1,0,15.958,0ZM3.637,20.848A.942.942,0,1,1,2.3,19.516l6-6L9.64,14.846Zm12.321-7.534A6.219,6.219,0,1,1,22.177,7.1,6.226,6.226,0,0,1,15.958,13.314Z" transform="translate(-1.153)"/>
        </g>
      </g>
      <g id="Group_30" data-name="Group 30" transform="translate(17.838 5.87)">
        <g id="Group_29" data-name="Group 29">
          <path id="Path_33" data-name="Path 33" d="M390.3,136.713a.441.441,0,0,0-.588.211l-.066.14a.442.442,0,1,0,.8.376l.066-.14A.441.441,0,0,0,390.3,136.713Z" transform="translate(-389.602 -136.671)"/>
        </g>
      </g>
      <g id="Group_32" data-name="Group 32" transform="translate(10.708 4.58)">
        <g id="Group_31" data-name="Group 31">
          <path id="Path_34" data-name="Path 34" d="M231.6,109.6a.441.441,0,0,0-.588.211l-.743,1.578c-.039,0-.079-.006-.119-.006a1.294,1.294,0,0,0-.23.021l-1.366-2.351a1.295,1.295,0,1,0-2.075-.081l-.484.7a1.3,1.3,0,1,0,.727.5l.474-.689a1.29,1.29,0,0,0,.6.024l1.358,2.337a1.295,1.295,0,1,0,1.91-.082l.743-1.578A.441.441,0,0,0,231.6,109.6Zm-5.929,1.741a.412.412,0,1,1,.412-.412A.412.412,0,0,1,225.668,111.341Zm1.877-2.688a.412.412,0,1,1,.412-.412A.412.412,0,0,1,227.545,108.654Zm2.6,4.437a.412.412,0,1,1,.412-.412A.412.412,0,0,1,230.147,113.09Z" transform="translate(-224.373 -106.947)"/>
        </g>
      </g>
      <g id="Group_34" data-name="Group 34" transform="translate(17.953 3.106)">
        <g id="Group_33" data-name="Group 33">
          <path id="Path_35" data-name="Path 35" d="M394.316,71.753a1.295,1.295,0,1,0,1.295,1.295A1.3,1.3,0,0,0,394.316,71.753Zm0,1.706a.412.412,0,1,1,.412-.412A.412.412,0,0,1,394.316,73.459Z" transform="translate(-393.021 -71.753)"/>
        </g>
      </g>
    </g>
  </g>
</svg>
