<svg xmlns="http://www.w3.org/2000/svg" xmlns:xlink="http://www.w3.org/1999/xlink" width="24" height="22" viewBox="0 0 24 22">
  <defs>
    <clipPath id="clip-path">
      <rect id="Rectangle_7" data-name="Rectangle 7" width="24" height="22" transform="translate(432 358)" fill="#fff"/>
    </clipPath>
  </defs>
  <g id="Mask_Group_1" data-name="Mask Group 1" transform="translate(-432 -358)" clip-path="url(#clip-path)">
    <g id="role" transform="translate(432 358)">
      <g id="Group_2" data-name="Group 2">
        <g id="Group_1" data-name="Group 1" transform="translate(0)">
          <path id="Path_1" data-name="Path 1" d="M58.461,16.355a10.783,10.783,0,0,1-1.841-1.184v-1.1a5.509,5.509,0,0,0,2.634-3.933,1.973,1.973,0,0,0,1.467-1.63c0-.682-.515-1.135-1.367-1.229V3.2l-.041-.076a6.439,6.439,0,0,0-1.3-1.566,5.946,5.946,0,0,0-8.032,0,6.44,6.44,0,0,0-1.3,1.566l-.041.076V7.276c-.852.094-1.367.547-1.367,1.229a1.973,1.973,0,0,0,1.467,1.631,5.509,5.509,0,0,0,2.634,3.933v1.1a10.785,10.785,0,0,1-1.842,1.185C45.1,17.79,45,20.409,45,20.52V22H63V20.524C63,20.412,62.934,17.776,58.461,16.355Zm.893-8.395c.609.085.684.4.684.545a1.221,1.221,0,0,1-.7.865C59.35,9.236,59.354,7.96,59.354,7.96Zm-11.392.545c0-.147.074-.46.684-.545,0,0,0,1.276.012,1.41A1.221,1.221,0,0,1,47.962,8.505ZM49.329,3.38a6.087,6.087,0,0,1,1.129-1.329,5.259,5.259,0,0,1,7.083,0A6.083,6.083,0,0,1,58.671,3.38V6.559c-2.025-.2-4.741-2.057-4.92-2.181a11.276,11.276,0,0,1-1.531-1.525l-.54.417A10.856,10.856,0,0,0,53,4.635a9.678,9.678,0,0,1-3.672,1.432Zm.056,6.425a6.089,6.089,0,0,1-.056-.846v-2.2a10.146,10.146,0,0,0,4.23-1.688,13.235,13.235,0,0,0,5.112,2.171V8.959a6.1,6.1,0,0,1-.056.847,4.852,4.852,0,0,1-2.494,3.759,4.775,4.775,0,0,1-4.242,0A4.852,4.852,0,0,1,49.385,9.805Zm6.552,4.588v.785a2.949,2.949,0,0,1-1.8.92h-.273a2.974,2.974,0,0,1-1.8-.92v-.785a5.543,5.543,0,0,0,3.873,0ZM45.684,21.32v-.788a2.634,2.634,0,0,1,.528-1.271,7.043,7.043,0,0,1,3.564-2.267,14.149,14.149,0,0,0,1.934-1.207,3.785,3.785,0,0,0,1.562.9L51.48,18.471l.483.481L54,16.924l2.037,2.027.483-.481-1.792-1.784a3.785,3.785,0,0,0,1.562-.9,14.151,14.151,0,0,0,1.936,1.207A6.966,6.966,0,0,1,61.8,19.255a2.59,2.59,0,0,1,.518,1.274v.79Z" transform="translate(-45)"/>
          <rect id="Rectangle_2" data-name="Rectangle 2" width="1.063" height="0.797" transform="translate(8.468 17.747)"/>
          <rect id="Rectangle_3" data-name="Rectangle 3" width="1.063" height="0.797" transform="translate(8.468 19.342)"/>
          <path id="Path_2" data-name="Path 2" d="M235.4,190.025h1.063v-.8H235.8V187.5H235v2.127A.4.4,0,0,0,235.4,190.025Z" transform="translate(-226.45 -179.154)"/>
        </g>
      </g>
    </g>
  </g>
</svg>
