<svg xmlns="http://www.w3.org/2000/svg" xmlns:xlink="http://www.w3.org/1999/xlink" width="24" height="22" viewBox="0 0 24 22">
  <defs>
    <clipPath id="clip-path">
      <rect id="Rectangle_9" data-name="Rectangle 9" width="24" height="22" transform="translate(430 358)" fill="#fff"/>
    </clipPath>
  </defs>
  <g id="Mask_Group_3" data-name="Mask Group 3" transform="translate(-430 -358)" clip-path="url(#clip-path)">
    <g id="team" transform="translate(429.788 358)">
      <g id="Group_25" data-name="Group 25">
        <g id="Group_24" data-name="Group 24" transform="translate(0 0)">
          <path id="Path_11" data-name="Path 11" d="M222.109,154.332h.407a.407.407,0,0,0,0-.814h-.407a.407.407,0,0,0,0,.814Z" transform="translate(-211.515 -147.241)"/>
          <path id="Path_12" data-name="Path 12" d="M94.109,86.065h.407a.407.407,0,0,0,0-.814h-.407a.407.407,0,0,0,0,.814Z" transform="translate(-89.396 -81.993)"/>
          <path id="Path_13" data-name="Path 13" d="M179.459,90.037a4.837,4.837,0,0,0,.434,1.5,3.053,3.053,0,0,0,5.615,0,4.821,4.821,0,0,0,.434-1.5.815.815,0,0,0,.423-.714v-.814a.815.815,0,0,0-.407-.7v-.11a2.446,2.446,0,0,0-2.443-2.443h-1.629a2.446,2.446,0,0,0-2.443,2.443v.11a.815.815,0,0,0-.407.7v.814A.815.815,0,0,0,179.459,90.037Zm.391-1.528a.407.407,0,0,0,.407-.407v-.407a1.63,1.63,0,0,1,1.629-1.629h1.629a1.63,1.63,0,0,1,1.629,1.629V88.1a.407.407,0,0,0,.407.407v.814a.407.407,0,0,0-.407.407,3.816,3.816,0,0,1-.364,1.447,2.241,2.241,0,0,1-4.157,0,3.821,3.821,0,0,1-.364-1.447.407.407,0,0,0-.407-.407v-.814Z" transform="translate(-170.922 -81.993)"/>
          <path id="Path_14" data-name="Path 14" d="M112.556,205.168l-.338,2.029a.407.407,0,0,0,.334.469.422.422,0,0,0,.068.005.407.407,0,0,0,.4-.34l.281-1.685a10.58,10.58,0,0,1,1.62.152.407.407,0,0,0,.144-.8,11.9,11.9,0,0,0-2.084-.169A.423.423,0,0,0,112.556,205.168Z" transform="translate(-107.074 -196.225)"/>
          <path id="Path_15" data-name="Path 15" d="M384.242,86.065h.407a.407.407,0,0,0,0-.814h-.407a.407.407,0,1,0,0,.814Z" transform="translate(-366.198 -81.993)"/>
          <path id="Path_16" data-name="Path 16" d="M264.776,154.332h.407a.407.407,0,0,0,0-.814h-.407a.407.407,0,0,0,0,.814Z" transform="translate(-252.221 -147.241)"/>
          <path id="Path_17" data-name="Path 17" d="M426.909,86.065h.407a.407.407,0,0,0,0-.814h-.407a.407.407,0,0,0,0,.814Z" transform="translate(-407.01 -81.993)"/>
          <path id="Path_18" data-name="Path 18" d="M341.591,21.77a4.838,4.838,0,0,0,.434,1.5,3.053,3.053,0,0,0,5.615,0,4.838,4.838,0,0,0,.434-1.5.815.815,0,0,0,.423-.714v-.814a.814.814,0,0,0-.407-.7v-.11a2.446,2.446,0,0,0-2.443-2.443h-1.629a2.446,2.446,0,0,0-2.443,2.443v.11a.815.815,0,0,0-.407.7v.814A.815.815,0,0,0,341.591,21.77Zm.391-1.528a.407.407,0,0,0,.407-.407v-.407a1.63,1.63,0,0,1,1.629-1.629h1.629a1.63,1.63,0,0,1,1.629,1.629v.407a.407.407,0,0,0,.407.407v.814a.407.407,0,0,0-.407.407,3.815,3.815,0,0,1-.364,1.447,2.241,2.241,0,0,1-4.157,0,3.821,3.821,0,0,1-.364-1.447.407.407,0,0,0-.407-.407v-.814Z" transform="translate(-325.748 -16.984)"/>
          <path id="Path_19" data-name="Path 19" d="M332.481,205.468a.407.407,0,0,0,.473.329,10.625,10.625,0,0,1,1.624-.152l.281,1.685a.407.407,0,0,0,.4.34.423.423,0,0,0,.068-.005.407.407,0,0,0,.334-.469l-.338-2.029a.416.416,0,0,0-.426-.34,11.936,11.936,0,0,0-2.088.169A.407.407,0,0,0,332.481,205.468Z" transform="translate(-317.253 -196.224)"/>
          <path id="Path_20" data-name="Path 20" d="M2.43,205.168a.425.425,0,0,0-.427-.34,12.729,12.729,0,0,0-1.648.1.407.407,0,0,0,.106.807,11.368,11.368,0,0,1,1.223-.09l1.165,6.98a.407.407,0,0,0,.4.34.388.388,0,0,0,.068-.006.407.407,0,0,0,.334-.469Z" transform="translate(0 -196.355)"/>
          <path id="Path_21" data-name="Path 21" d="M266.022,273.1a.424.424,0,0,0-.43.352l-1.222,8.953a.407.407,0,0,0,.349.459.433.433,0,0,0,.055,0,.407.407,0,0,0,.4-.352l1.173-8.6a5.709,5.709,0,0,1,3.707,1.048,1.327,1.327,0,0,1,.417.978v6.515a.407.407,0,0,0,.814,0V275.94a2.132,2.132,0,0,0-.657-1.555C269.8,273.553,268.162,273.1,266.022,273.1Z" transform="translate(-252.372 -261.677)"/>
          <path id="Path_22" data-name="Path 22" d="M240.4,273.8a.814.814,0,1,0-1.222.7v2.964a.407.407,0,0,0,.814,0V274.5A.812.812,0,0,0,240.4,273.8Z" transform="translate(-227.804 -261.315)"/>
          <path id="Path_23" data-name="Path 23" d="M341.576,375.384a.407.407,0,0,0-.407.407v4.886a.407.407,0,1,0,.814,0v-4.886A.407.407,0,0,0,341.576,375.384Z" transform="translate(-325.482 -359.085)"/>
          <path id="Path_24" data-name="Path 24" d="M411.064,205.531a.815.815,0,1,0-1.223.7V209.2a.407.407,0,0,0,.814,0v-2.963A.812.812,0,0,0,411.064,205.531Z" transform="translate(-390.756 -196.16)"/>
          <path id="Path_25" data-name="Path 25" d="M438.4,204.929a12.771,12.771,0,0,0-1.652-.1.419.419,0,0,0-.428.34l-1.224,7.324a.407.407,0,0,0,.334.469.384.384,0,0,0,.068.006.407.407,0,0,0,.4-.34l1.167-6.98a11.438,11.438,0,0,1,1.226.09.407.407,0,0,0,.107-.807Z" transform="translate(-415.185 -196.355)"/>
          <path id="Path_26" data-name="Path 26" d="M51.442,86.065h.407a.407.407,0,1,0,0-.814h-.407a.407.407,0,0,0,0,.814Z" transform="translate(-48.6 -81.993)"/>
          <path id="Path_27" data-name="Path 27" d="M68.915,204.717a.812.812,0,0,0-.407,1.516V209.2a.407.407,0,0,0,.814,0v-2.964a.812.812,0,0,0-.407-1.516Z" transform="translate(-64.851 -196.16)"/>
          <path id="Path_28" data-name="Path 28" d="M8.792,21.77a4.826,4.826,0,0,0,.434,1.5,2.8,2.8,0,0,0,2.808,1.854,2.8,2.8,0,0,0,2.807-1.854,4.821,4.821,0,0,0,.434-1.5.815.815,0,0,0,.423-.714v-.814a.815.815,0,0,0-.407-.7v-.11a2.446,2.446,0,0,0-2.443-2.443H11.219a2.446,2.446,0,0,0-2.443,2.443v.11a.815.815,0,0,0-.407.7v.814A.815.815,0,0,0,8.792,21.77Zm.391-1.528a.407.407,0,0,0,.407-.407v-.407A1.63,1.63,0,0,1,11.219,17.8h1.629a1.63,1.63,0,0,1,1.629,1.629v.407a.407.407,0,0,0,.407.407v.814a.407.407,0,0,0-.407.407,3.816,3.816,0,0,1-.364,1.447,1.989,1.989,0,0,1-2.079,1.4,1.988,1.988,0,0,1-2.079-1.4,3.821,3.821,0,0,1-.364-1.447.407.407,0,0,0-.407-.407v-.814Z" transform="translate(-7.97 -16.984)"/>
          <path id="Path_29" data-name="Path 29" d="M153.842,375.384a.407.407,0,0,0-.407.407v4.886a.407.407,0,0,0,.814,0v-4.886A.407.407,0,0,0,153.842,375.384Z" transform="translate(-146.38 -359.085)"/>
          <path id="Path_30" data-name="Path 30" d="M107.933,273.447a.407.407,0,0,0-.4-.352c-2.139,0-3.8.454-4.637,1.29a2.13,2.13,0,0,0-.657,1.555v6.515a.407.407,0,0,0,.814,0V275.94a1.326,1.326,0,0,1,.418-.978,5.7,5.7,0,0,1,3.706-1.048l1.173,8.6a.407.407,0,0,0,.4.352.433.433,0,0,0,.056,0,.407.407,0,0,0,.349-.459Z" transform="translate(-97.597 -261.677)"/>
        </g>
      </g>
    </g>
  </g>
</svg>
